<svg width="18" height="20" viewBox="0 0 18 20" fill="none" xmlns="http://www.w3.org/2000/svg">
<g clip-path="url(#clip0_2_75)">
<path d="M8.99986 0C8.34887 0 7.72455 0.258603 7.26423 0.71892C6.80391 1.17924 6.54531 1.80356 6.54531 2.45455V2.93727C5.33743 3.42588 4.30287 4.26387 3.57407 5.34395C2.84527 6.42403 2.45541 7.69704 2.4544 9V12.0436L0.114403 15.9464C0.0407524 16.0706 0.00129236 16.2121 3.12085e-05 16.3565C-0.00122995 16.5009 0.0357527 16.6431 0.107222 16.7686C0.178692 16.894 0.282102 16.9984 0.406948 17.071C0.531794 17.1435 0.673627 17.1818 0.818039 17.1818H6.54531C6.54531 17.8328 6.80391 18.4571 7.26423 18.9174C7.72455 19.3778 8.34887 19.6364 8.99986 19.6364C9.65084 19.6364 10.2752 19.3778 10.7355 18.9174C11.1958 18.4571 11.4544 17.8328 11.4544 17.1818H17.1817C17.3261 17.1818 17.4679 17.1435 17.5928 17.071C17.7176 16.9984 17.821 16.894 17.8925 16.7686C17.964 16.6431 18.0009 16.5009 17.9997 16.3565C17.9984 16.2121 17.959 16.0706 17.8853 15.9464L15.5453 12.0436V9C15.5443 7.69704 15.1544 6.42403 14.4256 5.34395C13.6968 4.26387 12.6623 3.42588 11.4544 2.93727V2.45455C11.4544 1.80356 11.1958 1.17924 10.7355 0.71892C10.2752 0.258603 9.65084 0 8.99986 0ZM2.26622 15.5455L3.97622 12.69C4.05116 12.5637 4.09072 12.4196 4.09077 12.2727V9C4.09077 7.69803 4.60797 6.44938 5.52861 5.52875C6.44924 4.60812 7.69789 4.09091 8.99986 4.09091C10.3018 4.09091 11.5505 4.60812 12.4711 5.52875C13.3917 6.44938 13.9089 7.69803 13.9089 9V12.2727C13.909 12.4196 13.9486 12.5637 14.0235 12.69L15.7335 15.5455H2.26622ZM8.18167 2.45455C8.18167 2.23755 8.26788 2.02944 8.42132 1.876C8.57475 1.72256 8.78286 1.63636 8.99986 1.63636C9.21685 1.63636 9.42496 1.72256 9.5784 1.876C9.73184 2.02944 9.81804 2.23755 9.81804 2.45455V2.51182C9.27522 2.43601 8.7245 2.43601 8.18167 2.51182V2.45455ZM8.18167 17.1818C8.18167 17.3988 8.26788 17.6069 8.42132 17.7604C8.57475 17.9138 8.78286 18 8.99986 18C9.21685 18 9.42496 17.9138 9.5784 17.7604C9.73184 17.6069 9.81804 17.3988 9.81804 17.1818H8.18167Z" fill="black"/>
</g>
<defs>
<clipPath id="clip0_2_75">
<rect width="18" height="19.6364" fill="white"/>
</clipPath>
</defs>
</svg>
