<svg width="23" height="20" viewBox="0 0 23 20" fill="none" xmlns="http://www.w3.org/2000/svg">
<path fill-rule="evenodd" clip-rule="evenodd" d="M22 4C22.152 3.99985 22.302 4.03436 22.4386 4.10092C22.5752 4.16748 22.6948 4.26433 22.7883 4.38409C22.8819 4.50386 22.9469 4.64338 22.9783 4.79205C23.0098 4.94071 23.007 5.0946 22.97 5.242L20.97 13.242C20.916 13.4584 20.7912 13.6506 20.6155 13.788C20.4397 13.9253 20.2231 13.9999 20 14H7C6.77694 13.9999 6.5603 13.9253 6.38454 13.788C6.20878 13.6506 6.08398 13.4584 6.03 13.242L3.22 2H1C0.734784 2 0.48043 1.89464 0.292893 1.70711C0.105357 1.51957 0 1.26522 0 1C0 0.734784 0.105357 0.48043 0.292893 0.292893C0.48043 0.105357 0.734784 0 1 0L4 0C4.22306 6.1623e-05 4.4397 0.0747014 4.61546 0.212049C4.79122 0.349398 4.91602 0.541568 4.97 0.758L5.78 4H22ZM20.723 6H6.28L7.78 12H19.222L20.723 6ZM16.184 18C16.3895 17.4167 16.7704 16.9113 17.2747 16.5532C17.7789 16.1951 18.3816 16.0018 19 16C19.549 15.999 20.0877 16.149 20.5573 16.4334C21.0268 16.7179 21.4091 17.126 21.6625 17.6131C21.9158 18.1001 22.0303 18.6475 21.9936 19.1952C21.9569 19.743 21.7704 20.2702 21.4543 20.7191C21.1383 21.168 20.7049 21.5214 20.2016 21.7407C19.6983 21.96 19.1444 22.0367 18.6005 21.9625C18.0565 21.8883 17.5434 21.666 17.1172 21.3199C16.6911 20.9738 16.3682 20.5172 16.184 20H10.816C10.5801 20.6672 10.1159 21.2296 9.50552 21.5876C8.89511 21.9457 8.17776 22.0765 7.48027 21.9568C6.78277 21.8371 6.15004 21.4747 5.69389 20.9337C5.23775 20.3926 4.98757 19.7077 4.98757 19C4.98757 18.2923 5.23775 17.6074 5.69389 17.0663C6.15004 16.5253 6.78277 16.1629 7.48027 16.0432C8.17776 15.9235 8.89511 16.0543 9.50552 16.4124C10.1159 16.7704 10.5801 17.3328 10.816 18H16.184ZM7 19C7 19.2652 7.10536 19.5196 7.29289 19.7071C7.48043 19.8946 7.73478 20 8 20C8.26522 20 8.51957 19.8946 8.70711 19.7071C8.89464 19.5196 9 19.2652 9 19C9 18.7348 8.89464 18.4804 8.70711 18.2929C8.51957 18.1054 8.26522 18 8 18C7.73478 18 7.48043 18.1054 7.29289 18.2929C7.10536 18.4804 7 18.7348 7 19ZM19 20C18.7348 20 18.4804 19.8946 18.2929 19.7071C18.1054 19.5196 18 19.2652 18 19C18 18.7348 18.1054 18.4804 18.2929 18.2929C18.4804 18.1054 18.7348 18 19 18C19.2652 18 19.5196 18.1054 19.7071 18.2929C19.8946 18.4804 20 18.7348 20 19C20 19.2652 19.8946 19.5196 19.7071 19.7071C19.5196 19.8946 19.2652 20 19 20Z" fill="black"/>
</svg>
